<?xml version="1.0" encoding="UTF-8" standalone="no"?>
<svg
   width="64"
   height="64"
   viewBox="0 0 64 64"
   version="1.1"
   xml:space="preserve"
   id="SVGRoot"
   sodipodi:docname="background.svg"
   inkscape:version="1.4.3 (0d15f75, 2025-12-25)"
   xmlns:inkscape="http://www.inkscape.org/namespaces/inkscape"
   xmlns:sodipodi="http://sodipodi.sourceforge.net/DTD/sodipodi-0.dtd"
   xmlns="http://www.w3.org/2000/svg"
   xmlns:svg="http://www.w3.org/2000/svg"><defs
   id="defs2" />
<sodipodi:namedview
   pagecolor="#a9a9a9"
   bordercolor="#292929"
   borderopacity="1"
   inkscape:showpageshadow="2"
   inkscape:pageopacity="0.0"
   inkscape:pagecheckerboard="0"
   inkscape:deskcolor="#232323"
   id="namedview1"
   inkscape:zoom="10.373333"
   inkscape:cx="8.0976864"
   inkscape:cy="34.559769"
   inkscape:window-width="2560"
   inkscape:window-height="1369"
   inkscape:window-x="-8"
   inkscape:window-y="-8"
   inkscape:window-maximized="1"
   inkscape:current-layer="SVGRoot" />
<style
   type="text/css"
   id="style1">
g.prefab path {
  vector-effect:non-scaling-stroke;
  -inkscape-stroke:hairline;
  fill: none;
  fill-opacity: 1;
  stroke-opacity: 1;
  stroke: #00349c;
}
</style>

<rect
   style="fill:#ff0000;stroke:#000000;stroke-width:0.1"
   id="rect2"
   width="6.936151"
   height="6.936151"
   x="28.553219"
   y="7.1063795"
   ry="0.875"
   rx="0" /><rect
   style="fill:#ff0000;stroke:#000000;stroke-width:0.1"
   id="rect2-6"
   width="6.936151"
   height="6.936151"
   x="42.851093"
   y="21.489553"
   ry="0.875"
   rx="0" /><rect
   style="fill:#ff0000;stroke:#000000;stroke-width:0.1"
   id="rect2-1"
   width="6.936151"
   height="6.936151"
   x="21.531954"
   y="57.021267"
   ry="0.875"
   rx="0" /><rect
   style="fill:#00ff00;stroke:#000000;stroke-width:0.1"
   id="rect2-4"
   width="6.936151"
   height="6.936151"
   x="21.531954"
   y="28.510632"
   ry="0.875"
   rx="1.3349272e-06" /><rect
   style="fill:#00ff00;stroke:#000000;stroke-width:0.1"
   id="rect2-4-27"
   width="6.936151"
   height="6.936151"
   x="49.95747"
   y="7.1237979"
   ry="0.875"
   rx="1.3349272e-06" /><rect
   style="fill:#00ff00;stroke:#000000;stroke-width:0.1"
   id="rect2-4-27-4"
   width="6.936151"
   height="6.936151"
   x="35.574486"
   y="49.769592"
   ry="0.875"
   rx="1.3349272e-06" /><rect
   style="fill:#0000ff;stroke:#000000;stroke-width:0.1"
   id="rect2-4-2"
   width="6.936151"
   height="6.936151"
   x="49.957474"
   y="42.622612"
   ry="0.875"
   rx="1.3349272e-06" /><rect
   style="fill:#0000ff;stroke:#000000;stroke-width:0.1"
   id="rect2-4-2-2"
   width="6.936151"
   height="6.936151"
   x="7.3191962"
   y="49.751328"
   ry="0.875"
   rx="1.3349272e-06" /><rect
   style="fill:#0000ff;stroke:#000000;stroke-width:0.1"
   id="rect2-4-2-5"
   width="6.936151"
   height="6.936151"
   x="7.3191962"
   y="7.1455812"
   ry="0.875"
   rx="1.3349272e-06" /><rect
   style="fill:none;stroke:#1a1a1a;stroke-width:0.176054"
   id="rect3"
   width="12.679823"
   height="12.784381"
   x="-0.0099302521"
   y="-0.009930185"
   ry="1.5654895" /><rect
   style="fill:none;stroke:#1a1a1a;stroke-width:0.176054"
   id="rect3-7"
   width="12.679823"
   height="12.784381"
   x="12.844155"
   y="-0.009930185"
   ry="1.5654895" /><rect
   style="fill:none;stroke:#1a1a1a;stroke-width:0.176054"
   id="rect3-8"
   width="12.679823"
   height="12.784381"
   x="25.698238"
   y="-0.009930185"
   ry="1.5654895" /><rect
   style="fill:none;stroke:#1a1a1a;stroke-width:0.176054"
   id="rect3-7-9"
   width="12.679823"
   height="12.784381"
   x="38.552326"
   y="-0.009930185"
   ry="1.5654895" /><rect
   style="fill:none;stroke:#1a1a1a;stroke-width:0.176054"
   id="rect3-7-9-9"
   width="12.679823"
   height="12.784381"
   x="51.232151"
   y="-0.009929752"
   ry="1.5654895" /><rect
   style="fill:none;stroke:#1a1a1a;stroke-width:0.176054"
   id="rect3-3"
   width="12.679823"
   height="12.784381"
   x="-0.0099302521"
   y="12.77445"
   ry="1.5654895" /><rect
   style="fill:none;stroke:#1a1a1a;stroke-width:0.176054"
   id="rect3-7-1"
   width="12.679823"
   height="12.784381"
   x="12.844156"
   y="12.77445"
   ry="1.5654895" /><rect
   style="fill:none;stroke:#1a1a1a;stroke-width:0.176054"
   id="rect3-8-2"
   width="12.679823"
   height="12.784381"
   x="25.698238"
   y="12.77445"
   ry="1.5654895" /><rect
   style="fill:none;stroke:#1a1a1a;stroke-width:0.176054"
   id="rect3-7-9-3"
   width="12.679823"
   height="12.784381"
   x="38.552326"
   y="12.77445"
   ry="1.5654895" /><rect
   style="fill:none;stroke:#1a1a1a;stroke-width:0.176054"
   id="rect3-7-9-9-3"
   width="12.679823"
   height="12.784381"
   x="51.232151"
   y="12.774451"
   ry="1.5654895" /><rect
   style="fill:none;stroke:#1a1a1a;stroke-width:0.176054"
   id="rect3-1"
   width="12.679823"
   height="12.784381"
   x="-0.009930796"
   y="25.55883"
   ry="1.5654895" /><rect
   style="fill:none;stroke:#1a1a1a;stroke-width:0.176054"
   id="rect3-7-3"
   width="12.679823"
   height="12.784381"
   x="12.844155"
   y="25.55883"
   ry="1.5654895" /><rect
   style="fill:none;stroke:#1a1a1a;stroke-width:0.176054"
   id="rect3-8-8"
   width="12.679823"
   height="12.784381"
   x="25.698238"
   y="25.55883"
   ry="1.5654895" /><rect
   style="fill:none;stroke:#1a1a1a;stroke-width:0.176054"
   id="rect3-7-9-7"
   width="12.679823"
   height="12.784381"
   x="38.552326"
   y="25.55883"
   ry="1.5654895" /><rect
   style="fill:none;stroke:#1a1a1a;stroke-width:0.176054"
   id="rect3-7-9-9-4"
   width="12.679823"
   height="12.784381"
   x="51.232151"
   y="25.55883"
   ry="1.5654895" /><rect
   style="fill:none;stroke:#1a1a1a;stroke-width:0.176054"
   id="rect3-3-7"
   width="12.679823"
   height="12.784381"
   x="-0.0099302521"
   y="38.343208"
   ry="1.5654895" /><rect
   style="fill:none;stroke:#1a1a1a;stroke-width:0.176054"
   id="rect3-7-1-9"
   width="12.679823"
   height="12.784381"
   x="12.844156"
   y="38.343208"
   ry="1.5654895" /><rect
   style="fill:none;stroke:#1a1a1a;stroke-width:0.176054"
   id="rect3-8-2-3"
   width="12.679823"
   height="12.784381"
   x="25.698238"
   y="38.343208"
   ry="1.5654895" /><rect
   style="fill:none;stroke:#1a1a1a;stroke-width:0.176054"
   id="rect3-7-9-3-1"
   width="12.679823"
   height="12.784381"
   x="38.552326"
   y="38.343208"
   ry="1.5654895" /><rect
   style="fill:none;stroke:#1a1a1a;stroke-width:0.176054"
   id="rect3-7-9-9-3-9"
   width="12.679823"
   height="12.784381"
   x="51.232151"
   y="38.343208"
   ry="1.5654895" /><rect
   style="fill:none;stroke:#1a1a1a;stroke-width:0.176054"
   id="rect3-1-8"
   width="12.679823"
   height="12.784381"
   x="-0.009930796"
   y="51.127594"
   ry="1.5654895" /><rect
   style="fill:none;stroke:#1a1a1a;stroke-width:0.176054"
   id="rect3-7-3-6"
   width="12.679823"
   height="12.784381"
   x="12.844155"
   y="51.127594"
   ry="1.5654895" /><rect
   style="fill:none;stroke:#1a1a1a;stroke-width:0.176054"
   id="rect3-8-8-5"
   width="12.679823"
   height="12.784381"
   x="25.698238"
   y="51.127594"
   ry="1.5654895" /><rect
   style="fill:none;stroke:#1a1a1a;stroke-width:0.176054"
   id="rect3-7-9-7-0"
   width="12.679823"
   height="12.784381"
   x="38.552326"
   y="51.127594"
   ry="1.5654895" /><rect
   style="fill:none;stroke:#1a1a1a;stroke-width:0.176054"
   id="rect3-7-9-9-4-2"
   width="12.679823"
   height="12.784381"
   x="51.232151"
   y="51.127594"
   ry="1.5654895" /></svg>
